<svg width="12" height="12" viewBox="0 0 12 12" fill="none" xmlns="http://www.w3.org/2000/svg">
<path d="M1.80469 10.7812C1.5599 10.7812 1.36458 10.6953 1.21875 10.5234C1.07812 10.3464 1.00781 10.112 1.00781 9.82031L1 1.96094C1 1.66927 1.07031 1.4375 1.21094 1.26562C1.35677 1.08854 1.55208 1 1.79688 1C1.93229 1 2.0599 1.02604 2.17969 1.07812C2.29948 1.13021 2.42969 1.1901 2.57031 1.25781L10.25 4.99219C10.5469 5.13802 10.7474 5.28125 10.8516 5.42188C10.9557 5.55729 11.0078 5.71354 11.0078 5.89062C11.0078 6.06771 10.9557 6.22656 10.8516 6.36719C10.7474 6.5026 10.5469 6.64323 10.25 6.78906L2.57031 10.5234C2.4349 10.5911 2.30729 10.651 2.1875 10.7031C2.06771 10.7552 1.9401 10.7812 1.80469 10.7812Z" fill="#919191"/>
</svg>
