<svg width="11" height="11" viewBox="0 0 11 11" fill="none" xmlns="http://www.w3.org/2000/svg">
<path d="M10.4961 1.58008C10.4961 1.71549 10.4701 1.8431 10.418 1.96289C10.3659 2.07747 10.306 2.20508 10.2383 2.3457L6.50391 10.0176C6.35807 10.3145 6.21484 10.5176 6.07422 10.627C5.9388 10.7311 5.78255 10.7832 5.60547 10.7832C5.42839 10.7832 5.26953 10.7311 5.12891 10.627C4.99349 10.5176 4.85286 10.3145 4.70703 10.0176L0.972656 2.3457C0.904948 2.20508 0.845052 2.07487 0.792969 1.95508C0.740885 1.83529 0.714844 1.70768 0.714844 1.57227C0.714844 1.32227 0.800781 1.12695 0.972656 0.986328C1.14974 0.840495 1.38411 0.767578 1.67578 0.767578L9.53516 0.775391C9.82682 0.775391 10.0586 0.848307 10.2305 0.994141C10.4076 1.13477 10.4961 1.33008 10.4961 1.58008Z" fill="#A3A3A3"/>
</svg>
