<svg width="244" height="52" viewBox="0 0 244 52" fill="none" xmlns="http://www.w3.org/2000/svg">
<path d="M6 25.5548C6 13.7658 14.1328 5.89076 25.8516 5.89076C36.9375 5.89076 44.7422 12.8751 44.7422 23.4689C44.7422 30.6173 41.25 35.4454 35.5547 35.4454C32.5781 35.4454 30.375 34.1095 29.8125 31.8126H29.4609C28.4766 34.1798 26.5312 35.4689 23.8359 35.4689C18.9844 35.4689 15.7266 31.4611 15.7266 25.5548C15.7266 19.8126 18.9141 15.9454 23.5312 15.9454C26.1094 15.9454 28.1953 17.1408 29.1328 19.2501H29.4844V18.4767C29.4844 16.8829 30.375 15.9454 31.9219 15.9454C33.4688 15.9454 34.3594 16.8829 34.3594 18.4767V28.8595C34.3594 30.5001 35.1797 31.4376 36.6562 31.4376C38.9297 31.4376 40.4531 28.3908 40.4531 23.9611C40.4531 14.9376 34.2188 9.71107 25.8281 9.71107C16.5469 9.71107 10.3125 16.1798 10.3125 25.672C10.3125 35.3751 16.8984 41.2345 26.8828 41.2345C28.7344 41.2345 30.0234 41.0236 31.5703 40.6954C31.9688 40.6251 32.2969 40.6017 32.625 40.6017C33.8672 40.6017 34.4766 41.2579 34.4766 42.2423C34.4766 43.1798 34.0078 43.7892 32.7656 44.2579C31.3125 44.7736 29.1094 45.0548 26.1797 45.0548C14.3203 45.0548 6 37.6017 6 25.5548ZM25.0547 31.1564C27.5625 31.1564 29.1328 29.0704 29.1328 25.672C29.1328 22.297 27.5625 20.2111 25.0547 20.2111C22.5703 20.2111 21.0938 22.2501 21.0938 25.672C21.0938 29.1173 22.5703 31.1564 25.0547 31.1564Z" fill="#51B660"/>
<path d="M225.891 39.7814C220.125 39.7814 216.281 37.7189 215.086 34.7658C214.922 34.3205 214.828 33.8751 214.828 33.5001C214.828 31.9298 216 30.8751 217.594 30.8751C218.695 30.8751 219.633 31.3673 220.57 32.422C221.906 34.1798 223.453 34.9767 226.055 34.9767C228.539 34.9767 230.156 33.9455 230.156 32.2814C230.156 30.922 229.289 30.1955 226.828 29.6564L222.609 28.7658C217.688 27.7111 215.203 25.2033 215.203 21.4767C215.203 16.672 219.352 13.5783 225.867 13.5783C231.07 13.5783 234.891 15.9455 235.711 18.7814C235.805 19.133 235.875 19.4611 235.875 19.7892C235.875 21.172 235.008 22.133 233.25 22.133C232.359 22.133 231.375 21.8048 230.766 21.0783C229.57 19.5548 228.211 18.383 225.75 18.383C223.43 18.383 221.812 19.4845 221.812 21.1017C221.812 22.4142 222.797 23.2814 225.305 23.8205L229.453 24.7111C234.797 25.8361 237 27.8048 237 31.5548C237 36.547 232.523 39.7814 225.891 39.7814Z"/>
<path d="M196.922 39.7111C191.484 39.7111 187.875 36.172 187.875 30.3126V17.1876C187.875 14.8439 189.305 13.6017 191.297 13.6017C193.312 13.6017 194.719 14.8439 194.719 17.1876V28.883C194.719 32.2345 196.383 34.0158 199.406 34.0158C202.453 34.0158 204.352 31.8361 204.352 28.508V17.1876C204.352 14.8439 205.781 13.6017 207.773 13.6017C209.789 13.6017 211.195 14.8439 211.195 17.1876V36.2658C211.195 38.5392 209.859 39.7345 207.891 39.7345C205.922 39.7345 204.586 38.5392 204.586 36.2658V34.7189H204.445C203.203 37.883 200.719 39.7111 196.922 39.7111Z"/>
<path d="M170.625 39.8048C163.641 39.8048 159.164 37.0158 157.805 33.3126C157.57 32.7033 157.43 32.047 157.43 31.4142C157.43 29.5392 158.719 28.297 160.547 28.297C162 28.297 162.961 28.8595 163.805 30.3595C164.906 32.9376 167.555 34.1095 170.789 34.1095C174.586 34.1095 177.164 32.2814 177.164 29.797C177.164 27.5704 175.57 26.3048 171.328 25.4376L167.742 24.7345C160.992 23.3986 157.688 20.1642 157.688 15.1251C157.688 8.93764 163.078 4.83607 170.602 4.83607C176.789 4.83607 181.453 7.43764 182.953 11.8439C183.117 12.3126 183.211 12.8048 183.211 13.4142C183.211 15.1017 181.992 16.2501 180.188 16.2501C178.594 16.2501 177.609 15.6173 176.812 14.1642C175.688 11.6095 173.508 10.5548 170.602 10.5548C167.109 10.5548 164.789 12.1954 164.789 14.6798C164.789 16.7658 166.406 18.0548 170.414 18.8517L173.977 19.5783C181.148 21.0079 184.242 23.8908 184.242 29.0236C184.242 35.6329 179.062 39.8048 170.625 39.8048Z"/>
<path d="M149.672 11.0001C147.609 11.0001 146.016 9.42982 146.016 7.46107C146.016 5.46889 147.609 3.92201 149.672 3.92201C151.734 3.92201 153.328 5.46889 153.328 7.46107C153.328 9.42982 151.734 11.0001 149.672 11.0001ZM149.672 39.7345C147.539 39.7345 146.25 38.3986 146.25 36.172V17.1876C146.25 14.9611 147.539 13.6017 149.672 13.6017C151.781 13.6017 153.094 14.9611 153.094 17.1876V36.172C153.094 38.3986 151.781 39.7345 149.672 39.7345Z"/>
<path d="M128.859 48.6876C123.727 48.6642 119.906 46.7189 118.289 44.0705C117.914 43.4376 117.773 42.8048 117.773 42.172C117.773 40.7423 118.852 39.6642 120.562 39.6642C121.453 39.6642 122.156 39.9455 122.93 40.6486C124.781 42.4064 126.562 43.3673 128.836 43.3908C132.586 43.4142 134.789 41.3517 134.789 38.2111V34.2033H134.648C133.477 36.8986 130.547 38.7033 126.914 38.7033C120.656 38.7033 116.719 33.922 116.719 26.258C116.719 18.383 120.562 13.7189 127.031 13.7189C130.641 13.7189 133.383 15.6173 134.695 18.4533H134.836V17.0705C134.836 14.7501 136.312 13.6017 138.281 13.6017C140.25 13.6017 141.68 14.7501 141.68 17.0705V38.258C141.68 44.797 136.945 48.7345 128.859 48.6876ZM129.234 33.6173C132.656 33.6173 134.859 30.8986 134.859 26.3517C134.859 21.8283 132.656 18.922 129.234 18.922C125.859 18.922 123.727 21.7814 123.727 26.3283C123.727 30.922 125.836 33.6173 129.234 33.6173Z"/>
<path d="M98.9062 39.7111C93.4688 39.7111 89.8594 36.172 89.8594 30.3126V17.1876C89.8594 14.8439 91.2891 13.6017 93.2812 13.6017C95.2969 13.6017 96.7031 14.8439 96.7031 17.1876V28.883C96.7031 32.2345 98.3672 34.0158 101.391 34.0158C104.438 34.0158 106.336 31.8361 106.336 28.508V17.1876C106.336 14.8439 107.766 13.6017 109.758 13.6017C111.773 13.6017 113.18 14.8439 113.18 17.1876V36.2658C113.18 38.5392 111.844 39.7345 109.875 39.7345C107.906 39.7345 106.57 38.5392 106.57 36.2658V34.7189H106.43C105.188 37.883 102.703 39.7111 98.9062 39.7111Z"/>
<path d="M52.2891 39.6876C50.2969 39.6876 49.125 38.4689 49.125 36.3829V9.52357C49.125 6.6642 50.8125 4.95326 53.6953 4.95326C56.1562 4.95326 57.5156 5.98451 58.5469 8.60951L66.9375 29.3986H67.125L75.4922 8.60951C76.5234 6.00795 77.9062 4.95326 80.3906 4.95326C83.25 4.95326 84.9375 6.64076 84.9375 9.52357V36.3829C84.9375 38.4689 83.7656 39.6876 81.7734 39.6876C79.7812 39.6876 78.6328 38.4689 78.6328 36.3829V16.4142H78.4453L70.0781 36.8751C69.4688 38.3751 68.5312 39.0314 67.0547 39.0314C65.5547 39.0314 64.5703 38.3517 63.9844 36.8986L55.6172 16.4142H55.4297V36.3829C55.4297 38.4689 54.2812 39.6876 52.2891 39.6876Z"/>
</svg>
