<svg width="300" height="300" viewBox="0 0 300 300" fill="none" xmlns="http://www.w3.org/2000/svg">
<path d="M276.988 141.351C289.686 156.536 274.5 236 290.5 292" stroke="#E1B5F8" stroke-width="4" stroke-linecap="round"/>
<path d="M218.393 143.733C227.26 189.218 218.174 240.11 209.5 295.5" stroke="#7DDC8B" stroke-width="4" stroke-linecap="round"/>
<path d="M237.972 143C247.654 189.518 227 239 230.5 293.5" stroke="#7DDC8B" stroke-width="4" stroke-linecap="round"/>
<path d="M184.043 248.697C183.03 263.847 179.908 280.357 176 297.731" stroke="#E1B5F8" stroke-width="4" stroke-linecap="round"/>
<path d="M183.691 158.437C192.603 174.83 192.087 195.029 189.423 214.024" stroke="#E1B5F8" stroke-width="4" stroke-linecap="round" stroke-linejoin="round"/>
<path d="M154.639 135.168C155.452 147.827 169.219 155.16 171.629 172.95C174.039 164.856 175.384 156.969 172.167 144.683C175.324 153.136 176.82 161.251 185.548 167.99" stroke="#E1B5F8" stroke-width="4" stroke-linecap="round" stroke-linejoin="round"/>
<path d="M98.452 144.495C100.289 150.285 101.673 154.621 102.484 157.923C103.123 160.522 102.857 163.298 101.995 167.052C97.0282 188.673 119.922 212.155 130.598 216.766C139.662 220.681 158.647 212.829 169.224 209.116" stroke="#E1B5F8" stroke-width="4" stroke-linecap="round" stroke-linejoin="round"/>
<path d="M183.538 201.844C187.582 199.267 189.563 197.13 191.307 192.963" stroke="#E1B5F8" stroke-width="4" stroke-linecap="round" stroke-linejoin="round"/>
<path d="M95.2054 193.126C97.8009 213.296 106.798 214.381 111.513 222.563C112.047 213.841 109.403 212.148 110.011 206.044C112.568 213.196 118.078 220.254 126.12 223.044" stroke="#E1B5F8" stroke-width="4" stroke-linecap="round" stroke-linejoin="round"/>
<path d="M76.2898 148.275C71.4194 215.508 80 231 78.5 262.5" stroke="#7DDC8B" stroke-width="4" stroke-linecap="round" stroke-linejoin="round"/>
<path d="M90.224 173.792C85 204 86.5 232.5 88.5 251.5" stroke="#7DDC8B" stroke-width="4" stroke-linecap="round" stroke-linejoin="round"/>
<path d="M92.3552 159.692C93.8351 153.591 96.9151 150.574 98.1044 147.62" stroke="#E1B5F8" stroke-width="4" stroke-linecap="round" stroke-linejoin="round"/>
<path d="M135.518 225.89C109.869 238.395 114.074 254.096 102 291" stroke="#E1B5F8" stroke-width="4" stroke-linecap="round" stroke-linejoin="round"/>
<path d="M145.524 226.834C145.057 235.311 141.101 242.84 141.313 252.166C155.089 251.811 167.225 243.151 181.939 240.241" stroke="#E1B5F8" stroke-width="4" stroke-linecap="round" stroke-linejoin="round"/>
<path d="M149 235C151.777 244.491 161.968 243.271 173.176 240.483" stroke="#E1B5F8" stroke-width="4" stroke-linecap="round" stroke-linejoin="round"/>
<path d="M150.596 215.601C153.587 219.47 154.554 222.135 153.523 226.492" stroke="#E1B5F8" stroke-width="4" stroke-linecap="round" stroke-linejoin="round"/>
<path d="M140.539 207.18C138.676 207.623 136.946 207.907 134.89 207.488" stroke="#E1B5F8" stroke-width="4" stroke-linecap="round" stroke-linejoin="round"/>
<path d="M154.526 161.642C155.424 175.92 154.122 180.881 151.357 180.816C146.798 180.708 148.533 168.846 148.534 161.201L154.526 161.642Z" fill="#E1B5F8"/>
<path d="M131.145 159.84C139.862 158.205 139.953 161.075 159.49 161.035" stroke="#E1B5F8" stroke-width="4" stroke-linecap="round" stroke-linejoin="round"/>
<path d="M166.206 181.955C168.745 183.395 169.179 184.251 170.866 184.917C172.574 185.202 169.816 179.547 171.468 180.142C173.483 181.128 175.016 182.45 176.652 182.974" stroke="#E1B5F8" stroke-width="4" stroke-linecap="round" stroke-linejoin="round"/>
<path d="M93 236C90 248 87.2139 257.757 82.9405 270.092C77.9187 263.772 73.3931 258.275 66.0115 248.04C65.8907 254.694 66.7595 261.02 66.8697 265.031M69.8476 271.355C74.4403 277.641 81.0852 283.699 87.57 292.081C92.6361 276.853 95.2408 269.697 100.5 250.5C99.6618 247.331 99.6016 241.839 98.8914 239.981" stroke="#7DDC8B" stroke-width="4" stroke-linecap="round" stroke-linejoin="round"/>
<path d="M132.123 144.057C143.835 142.765 150.55 147.293 158.659 148.521" stroke="#E1B5F8" stroke-width="4" stroke-linecap="round" stroke-linejoin="round"/>
<path d="M101.487 74.1955C110.711 62.8816 123.534 42.1965 133.5 36" stroke="#E1B5F8" stroke-width="4" stroke-linecap="round"/>
<path d="M142.5 30.5C155.49 29.6655 164.5 23 197.5 23" stroke="#E1B5F8" stroke-width="4" stroke-linecap="round"/>
<path d="M203 23.6977C208.445 11.0637 224.861 18.3585 221.652 28.6736" stroke="#E1B5F8" stroke-width="4" stroke-linecap="round"/>
<path d="M221.652 28.6736C221.652 28.6736 214.393 32.1952 208.878 28.894" stroke="#E1B5F8" stroke-width="4" stroke-linecap="round"/>
<path d="M228.5 31C269.044 60.5351 269.508 60.194 273.786 79.9764" stroke="#E1B5F8" stroke-width="4" stroke-linecap="round"/>
<path d="M276.315 94.3469C277.208 103.97 280.562 106.103 279.883 134.857" stroke="#E1B5F8" stroke-width="4" stroke-linecap="round"/>
<path d="M96.2389 75.7279C130.549 69.2275 145.332 123.174 171.107 121.876" stroke="#E1B5F8" stroke-width="4" stroke-linecap="round"/>
<path d="M23.5 80C51.5932 78.5715 49.4017 76.8736 83.3729 76.0926" stroke="#E1B5F8" stroke-width="4" stroke-linecap="round"/>
<path d="M16.7331 82.2286C4.11882 97.3832 14.4286 123.773 23.7231 118.875" stroke="#E1B5F8" stroke-width="4" stroke-linecap="round"/>
<path d="M31.1343 117.469C38.9967 116.901 44.435 116.263 49.9306 114.958" stroke="#E1B5F8" stroke-width="4" stroke-linecap="round"/>
<path d="M38.3212 90.4376C52.0545 99.5224 50.93 151.844 77.2056 147.623" stroke="#E1B5F8" stroke-width="4" stroke-linecap="round"/>
<path d="M88.4624 146.157C117.587 141.108 131.886 134.859 163.788 134.907C183.691 147.111 200.149 145.832 221.719 140.688" stroke="#E1B5F8" stroke-width="4" stroke-linecap="round"/>
<path d="M179.44 128.756C209.779 140.886 261.997 147.939 275.489 142.602" stroke="#E1B5F8" stroke-width="4" stroke-linecap="round"/>
<path d="M131.603 56.8368C138.789 42.4753 146.511 51.0244 141.894 79.8027" stroke="#7DDC8B" stroke-width="4" stroke-linecap="round" stroke-linejoin="round"/>
<path d="M127.259 54.1455C126.296 69.8955 127.791 68.3729 135.621 59.0227" stroke="#7DDC8B" stroke-width="4" stroke-linecap="round" stroke-linejoin="round"/>
<path d="M179.192 111.204C181.026 89.8588 182.108 79.2759 189.452 61.5539" stroke="#E1B5F8" stroke-width="4" stroke-linecap="round" stroke-linejoin="round"/>
<path d="M196.235 45.988C197.342 41.5862 201.078 37.6642 204.443 33.8475" stroke="#E1B5F8" stroke-width="4" stroke-linecap="round" stroke-linejoin="round"/>
</svg>
