<svg width="60" height="11" viewBox="0 0 60 11" fill="none" xmlns="http://www.w3.org/2000/svg">
<path d="M10.0312 1.17188C10.0312 0.671875 9.65625 0.367188 9.07031 0.367188L1.21094 0.359375C0.632812 0.359375 0.25 0.664062 0.25 1.16406C0.25 1.4375 0.367188 1.65625 0.507812 1.9375L4.24219 9.60938C4.53125 10.2031 4.78906 10.375 5.14062 10.375C5.49219 10.375 5.75 10.2031 6.03906 9.60938L9.77344 1.9375C9.91406 1.66406 10.0312 1.44531 10.0312 1.17188Z" fill="#51B660"/>
<path d="M22.3125 9.5625C22.3125 9.28906 22.1953 9.07031 22.0547 8.79688L18.3203 1.125C18.0312 0.53125 17.7734 0.359375 17.4219 0.359375C17.0703 0.359375 16.8125 0.53125 16.5234 1.125L12.7891 8.79688C12.6484 9.07812 12.5312 9.29688 12.5312 9.57031C12.5312 10.0703 12.9141 10.375 13.4922 10.375L21.3516 10.3672C21.9375 10.3672 22.3125 10.0625 22.3125 9.5625Z" fill="#51B660"/>
<path d="M34.5938 1.17188C34.5938 0.671875 34.2188 0.367188 33.6328 0.367188L25.7734 0.359375C25.1953 0.359375 24.8125 0.664062 24.8125 1.16406C24.8125 1.4375 24.9297 1.65625 25.0703 1.9375L28.8047 9.60938C29.0938 10.2031 29.3516 10.375 29.7031 10.375C30.0547 10.375 30.3125 10.2031 30.6016 9.60938L34.3359 1.9375C34.4766 1.66406 34.5938 1.44531 34.5938 1.17188Z" fill="#51B660"/>
<path d="M46.875 9.5625C46.875 9.28906 46.7578 9.07031 46.6172 8.79688L42.8828 1.125C42.5938 0.53125 42.3359 0.359375 41.9844 0.359375C41.6328 0.359375 41.375 0.53125 41.0859 1.125L37.3516 8.79688C37.2109 9.07812 37.0938 9.29688 37.0938 9.57031C37.0938 10.0703 37.4766 10.375 38.0547 10.375L45.9141 10.3672C46.5 10.3672 46.875 10.0625 46.875 9.5625Z" fill="#51B660"/>
<path d="M59.1562 1.17188C59.1562 0.671875 58.7812 0.367188 58.1953 0.367188L50.3359 0.359375C49.7578 0.359375 49.375 0.664062 49.375 1.16406C49.375 1.4375 49.4922 1.65625 49.6328 1.9375L53.3672 9.60938C53.6562 10.2031 53.9141 10.375 54.2656 10.375C54.6172 10.375 54.875 10.2031 55.1641 9.60938L58.8984 1.9375C59.0391 1.66406 59.1562 1.44531 59.1562 1.17188Z" fill="#51B660"/>
</svg>
