<svg width="84" height="11" viewBox="0 0 84 11" fill="none" xmlns="http://www.w3.org/2000/svg">
<path d="M9.86403 9.5625C9.86403 10.0625 9.48903 10.3672 8.90309 10.3672L1.04372 10.375C0.465591 10.375 0.0827789 10.0703 0.0827789 9.57031C0.0827789 9.29688 0.199966 9.07812 0.340591 8.79688L4.07497 1.125C4.36403 0.53125 4.62184 0.359375 4.9734 0.359375C5.32497 0.359375 5.58278 0.53125 5.87184 1.125L9.60622 8.79688C9.74684 9.07031 9.86403 9.28906 9.86403 9.5625Z" fill="#51B660"/>
<path d="M22.1453 1.17188C22.1453 1.44531 22.0281 1.66406 21.8875 1.9375L18.1531 9.60938C17.864 10.2031 17.6062 10.375 17.2547 10.375C16.9031 10.375 16.6453 10.2031 16.3562 9.60938L12.6218 1.9375C12.4812 1.65625 12.364 1.4375 12.364 1.16406C12.364 0.664062 12.7468 0.359375 13.325 0.359375L21.1843 0.367188C21.7703 0.367188 22.1453 0.671875 22.1453 1.17188Z" fill="#51B660"/>
<path d="M34.4265 9.5625C34.4265 10.0625 34.0515 10.3672 33.4656 10.3672L25.6062 10.375C25.0281 10.375 24.6453 10.0703 24.6453 9.57031C24.6453 9.29688 24.7625 9.07812 24.9031 8.79688L28.6375 1.125C28.9265 0.53125 29.1843 0.359375 29.5359 0.359375C29.8875 0.359375 30.1453 0.53125 30.4343 1.125L34.1687 8.79688C34.3093 9.07031 34.4265 9.28906 34.4265 9.5625Z" fill="#51B660"/>
<path d="M46.7078 1.17188C46.7078 1.44531 46.5906 1.66406 46.45 1.9375L42.7156 9.60938C42.4265 10.2031 42.1687 10.375 41.8172 10.375C41.4656 10.375 41.2078 10.2031 40.9187 9.60938L37.1843 1.9375C37.0437 1.65625 36.9265 1.4375 36.9265 1.16406C36.9265 0.664062 37.3093 0.359375 37.8875 0.359375L45.7468 0.367188C46.3328 0.367188 46.7078 0.671875 46.7078 1.17188Z" fill="#51B660"/>
<path d="M58.989 9.5625C58.989 10.0625 58.614 10.3672 58.0281 10.3672L50.1687 10.375C49.5906 10.375 49.2078 10.0703 49.2078 9.57031C49.2078 9.29688 49.325 9.07812 49.4656 8.79688L53.2 1.125C53.489 0.53125 53.7468 0.359375 54.0984 0.359375C54.45 0.359375 54.7078 0.53125 54.9968 1.125L58.7312 8.79688C58.8718 9.07031 58.989 9.28906 58.989 9.5625Z" fill="#51B660"/>
<path d="M71.2703 1.17188C71.2703 1.44531 71.1531 1.66406 71.0125 1.9375L67.2781 9.60938C66.989 10.2031 66.7312 10.375 66.3797 10.375C66.0281 10.375 65.7703 10.2031 65.4812 9.60938L61.7468 1.9375C61.6062 1.65625 61.489 1.4375 61.489 1.16406C61.489 0.664062 61.8718 0.359375 62.45 0.359375L70.3093 0.367188C70.8953 0.367188 71.2703 0.671875 71.2703 1.17188Z" fill="#51B660"/>
<path d="M83.5515 9.5625C83.5515 10.0625 83.1765 10.3672 82.5906 10.3672L74.7312 10.375C74.1531 10.375 73.7703 10.0703 73.7703 9.57031C73.7703 9.29688 73.8875 9.07812 74.0281 8.79688L77.7625 1.125C78.0515 0.53125 78.3093 0.359375 78.6609 0.359375C79.0125 0.359375 79.2703 0.53125 79.5593 1.125L83.2937 8.79688C83.4343 9.07031 83.5515 9.28906 83.5515 9.5625Z" fill="#51B660"/>
</svg>
